# xmcd
#
# Track frame offsets:
#	150
#	29852
#	48600
#	75477
#	92050
#	110080
#	125712
#	135030
#	153380
#	173140
#	189895
#
# Disc length: 2850 seconds
#
# Revision: 0
# Processed by: cddbd v1.5.2PL0 Copyright (c) Steve Scherf et al.
# Submitted via: EasyCDDAExtractor 8.2.1.1
#
DISCID=8d0b200b
DTITLE=Luxedo - Beauty Queen
DYEAR=1998
DGENRE=
TTITLE0=Shake Out
TTITLE1=Maureen de Cooliette
TTITLE2=Beauty Queen
TTITLE3=Take it Sleazy
TTITLE4=One Dirty Fine morning
TTITLE5=Dancin' Alone
TTITLE6=Hulahoop
TTITLE7=Spanish Fly
TTITLE8=Hi Ho
TTITLE9=Slow Train
TTITLE10=After the Dance
EXTD=
EXTT0=
EXTT1=
EXTT2=
EXTT3=
EXTT4=
EXTT5=
EXTT6=
EXTT7=
EXTT8=
EXTT9=
EXTT10=
PLAYORDER=
